<?xml version="1.0" standalone="no"?>
<!DOCTYPE svg PUBLIC "-//W3C//DTD SVG 20010904//EN"
 "http://www.w3.org/TR/2001/REC-SVG-20010904/DTD/svg10.dtd">
<svg version="1.0" xmlns="http://www.w3.org/2000/svg"
 width="250.000000pt" height="250.000000pt" viewBox="0 0 250.000000 250.000000"
 preserveAspectRatio="xMidYMid meet">
<metadata>
Created by potrace 1.14, written by Peter Selinger 2001-2017
</metadata>
<g transform="translate(0.000000,250.000000) scale(0.100000,-0.100000)"
fill="#000000" stroke="none">
<path d="M1090 2454 c-115 -17 -251 -57 -356 -105 -65 -30 -203 -113 -214
-129 -3 -4 -13 -11 -22 -16 -30 -16 -145 -132 -201 -201 -112 -141 -208 -341
-232 -487 -3 -17 -8 -38 -10 -46 -26 -98 -26 -298 1 -447 2 -13 6 -34 8 -47
13 -75 95 -274 152 -367 132 -214 338 -388 573 -485 36 -14 72 -28 80 -30 9
-2 48 -12 88 -23 95 -26 167 -35 288 -36 143 0 294 25 419 71 46 17 208 95
216 104 3 3 26 19 52 36 104 66 247 209 326 325 32 48 98 172 119 224 18 44
63 204 71 250 9 53 9 337 0 401 -19 130 -85 306 -161 434 -99 163 -260 323
-414 411 -18 11 -48 27 -65 37 -38 22 -162 72 -189 77 -11 2 -23 6 -28 10 -5
3 -50 14 -100 24 -85 17 -321 26 -401 15z"/>
</g>
</svg>
